<?xml version="1.0" encoding="utf-8"?>
<!-- Generator: Adobe Illustrator 16.0.3, SVG Export Plug-In . SVG Version: 6.00 Build 0)  -->
<!DOCTYPE svg PUBLIC "-//W3C//DTD SVG 1.1//EN" "http://www.w3.org/Graphics/SVG/1.1/DTD/svg11.dtd">
<svg version="1.1" id="Layer_1" xmlns="http://www.w3.org/2000/svg" xmlns:xlink="http://www.w3.org/1999/xlink" x="0px" y="0px"
	 width="336.248px" height="135.818px" viewBox="0 0 336.248 135.818" enable-background="new 0 0 336.248 135.818"
	 xml:space="preserve">
<g>
	<defs>
		<rect id="SVGID_1_" width="336.248" height="135.818"/>
	</defs>
	<clipPath id="SVGID_2_">
		<use xlink:href="#SVGID_1_"  overflow="visible"/>
	</clipPath>
	<path clip-path="url(#SVGID_2_)" fill="black" d="M336.246,42.598l0.003-0.156c0-7.508-1.511-18.31-8.706-27.141
		C319.271,5.148,305.614,0,286.951,0H107.263v9.563C98.949,3.213,87.328,0,72.607,0H0v135.818h77.546
		c4.437-0.146,17.499-1.225,28.392-8.646c0.446-0.311,0.897-0.615,1.325-0.941v9.003h86.683V69.09h20.398v24.286
		c0,12.736,4.229,33.298,29.916,40.138l-0.005,0.011c0,0,3.909,1.348,9.371,1.976c0.43,0.044,3.269,0.318,7.196,0.318h75.427
		l-0.006-91.772l0.006-0.711l-0.003-0.188l0.003-0.361L336.246,42.598z M107.011,96.947c-0.02,15.452-10.348,23.277-31.608,23.932
		l-1.005,0.046H14.894V70.302h57.713c0.63,0,1.251,0.008,1.872,0.022c11.726,0.232,20.387,2.693,25.706,7.283
		c4.52,4.045,6.816,9.782,6.823,17.065l-0.004,0.08l0.004,0.245v0.615h0.003V96.947z M107.011,41.156
		c-0.011,8.47-3.04,14.529-9.25,18.482c-6.972-2.807-15.425-4.23-25.154-4.23H14.894V14.895h57.713c0.63,0,1.251,0.008,1.872,0.021
		c21.87,0.434,32.512,8.27,32.529,23.968l-0.004,0.081l0.006,0.326l0.001,0.402V41.156z M214.035,54.196h-34.983v66.145h-56.895
		V14.895h91.878V54.196z M229.238,14.895h57.713c22.925,0,34.175,8.835,34.393,26.978l0.007,12.324h-92.112V14.895z
		 M261.911,120.924l-1.797-0.079c-11.919-0.522-20.451-3.743-25.358-9.568c-3.662-4.348-5.518-10.37-5.518-17.9V69.47h92.112
		l0.003,51.454H261.911z"/>
</g>
</svg>
